<mxfile host="app.diagrams.net" modified="2023-03-31T01:54:42.332Z" agent="5.0 (Windows NT 10.0; Win64; x64) AppleWebKit/537.36 (KHTML, like Gecko) Chrome/111.0.0.0 Safari/537.36" etag="Ws5kbb6t4DLIOJoeaFxK" version="21.0.10" type="github">
  <diagram name="Seite-1" id="W1xOWKO0LcUJP0tvtBJj">
    <mxGraphModel dx="1434" dy="788" grid="1" gridSize="10" guides="1" tooltips="1" connect="1" arrows="1" fold="1" page="1" pageScale="1" pageWidth="827" pageHeight="1169" math="0" shadow="0">
      <root>
        <mxCell id="0" />
        <mxCell id="1" parent="0" />
        <mxCell id="Ob0yJDUcJnIcGMKmv0vH-12" value="" style="rounded=0;whiteSpace=wrap;html=1;fillColor=none;" vertex="1" parent="1">
          <mxGeometry x="320" y="130" width="160" height="290" as="geometry" />
        </mxCell>
        <mxCell id="Ob0yJDUcJnIcGMKmv0vH-13" value="" style="rounded=0;whiteSpace=wrap;html=1;fillColor=none;" vertex="1" parent="1">
          <mxGeometry x="480" y="130" width="160" height="290" as="geometry" />
        </mxCell>
        <mxCell id="Ob0yJDUcJnIcGMKmv0vH-1" value="" style="ellipse;shape=cloud;whiteSpace=wrap;html=1;fillColor=none;" vertex="1" parent="1">
          <mxGeometry y="140" width="260" height="300" as="geometry" />
        </mxCell>
        <mxCell id="Ob0yJDUcJnIcGMKmv0vH-3" value="" style="verticalLabelPosition=bottom;html=1;verticalAlign=top;align=center;strokeColor=none;fillColor=#00BEF2;shape=mxgraph.azure.sql_database;" vertex="1" parent="1">
          <mxGeometry x="91.57" y="280" width="63.75" height="70" as="geometry" />
        </mxCell>
        <mxCell id="Ob0yJDUcJnIcGMKmv0vH-4" value="" style="shape=image;verticalLabelPosition=bottom;labelBackgroundColor=default;verticalAlign=top;aspect=fixed;imageAspect=0;image=data:image/png,iVBORw0KGgoAAAANSUhEUgAAAOEAAADhCAMAAAAJbSJIAAABMlBMVEX///9ChfT7vAXqQzU0qFP7uQA6gfSKsPcrpU1Lr2RWj/WCxpP7uAAzqUk8lbZChPjpNiXqPzDpOirxPyMxffO5Wn38vwDpOSnpMiDQ3/zUtx3pLhrpOzf/+u/6/P8np1T8y1LX5Pz//vj+78v+9PP2trH61dP+9vX97Ou+V3RPjfXy9/70paDpNzfk7f38zVtunvb+8tb7wyv8ykxflvW60PvylpDrT0LxiIH3wr7ubmX1sKvzopzyjYb73tyauvj+9uGTtvj92Ye/0/t8qPf+6bn803D93pf95KnsX1XubGPsVEj4yMXveG/u2+HsVy7wcCnyhCL1kxr3oBT5rg/rTzLuZizyfiTtVx/2nkP80mr92pD81nuoxPn7xzmg1LDo9Otqu36Hus6+4cbT69lYtW/UuR60AAAKh0lEQVR4nO2d/1/aSBPHBUy0iH2SXCqxoI9SQaqt36ogxVpqUUHr055Xn7vz1NbH3v//LzwJICQhITOb2YTeaz8/9cudybszu7M7M7uZmBASEhISEhISEhISEhISEhISEhISGiOtlA9Ln4r1g4NKpXJwUC/WSofllbhfikirpVrlol1VFcNQlGxW07RsVrF+o1bbF5ViaTXuFwylcm2/auJoqqqmhmX+qfmX2ep+rRz3izLJosuZcB5oLlBNyaXe/WyU5fpZ1tAC4QbSDO1t/aeBXC22NSXYdkO2VLR28WcYlaX9HAPeI2RuvxQ3wGiZ5sthnNMDMjfOhlytVw1W89kYjfODMWU8SDG7p4tRUceRsa4qJHhdKVo9biCXaucGIZ8l4/xT3FA2lc+I/NMu1Xg7NgHygGB+8ZJmHMSN1lHpnHIAOqW0xyA88jJgV6oStxnLbX4G7Eo5i3U01nI8DdiVasQ4qVZy3Pks5Sox8a2+5e2hjzIuYsl4lKvh1tgYadUYBmOJQ5D3l5r7T9SANUB+glC/PJM/RgtYpF6GBgC+TCT0vUgBo5lE+4DPEoloEaO2YAcwSsSYAKNDrEXsoi8TfemRTDelOMZgH3GeP+ChZ4Y+IkBTG7wBV6rRAr50ASbW1jkTtqNbqlmAz/7lJpR3+QLuR7XY7gG6+ayhOMUTMNo44QnIN2YcZiMFHBqDj47Kb7aJdJbxsWBntuEF+I5gEHqXg3GA3IbipzCDUM0qRi6nparVakrL5Yyg6vAoQF6Bf5XZR1VF0c4qxdJgn14uFStnmuK/if7l5VCYcIzEtUUOhO/YphnNSF3UDz1/4mH9IuVdCx9tQU5+WmLyUUW7qI3KIq3ULjwq4oGAJuIyOeE5Q2XeUAHdB+VX7rpqgIt2laYGrKNNqCrtGvCHF6t2OwIsmKCP+ytoAypVKF+HcVDegQGaol2CV5DTjKq8wtWpV1/1zAgGlN9TApaROwqDoZxSblsDwXep5iHKxRsuUqiMRfh6VgVb0DIiYcQoo6YZ7dw7/AWrVEUAmpMNnRHfYZxUecveKbKypSMI5SYVIMqExn6oZ01hEHWq6fQAMQpzr0I+7BaBSDWdei+58/n869f5VOrq6sr8jfnLfJ4CEIdIlJYqureFJlv+85dfL3/7mnnU198uf/3yOfU6PCAKkWhh01YddKmrL5df5zpKDtT9g8xNqxH+gR/giCSJt8OcHe+/XbqkjyQpM3dzvBDykU0ZbESKLUZ/wZZ/3cHzgxtQZuaujwthHrmYhhLKHwgIe7Ewn/odgvdoyuRRI8QzN8BGlMMDdrMz+atLMN6jJTe32Z/6EToUCTI2+6YN858vkzi+HuML5sdChyLB4tTyTxa+DqO02WB87DrYT8MClpT87xIbX5fxhHHOgfppaDet/PGVna/DmDxme/IuzIqhV25/MjqoTZlrpvg4DzRiuKDfuAuL1zUj04wDnGzk3RCL0+MMBaCpzBHD05eBRpTZh+IRFaBpxiUGT92Czqc621gsbEpkgCbiTgP9BtCRaCI2GeoYCzuUgJbwg3ENSmgORjRiI0kNmJTQYeM9OOwn5DVkWmqbGo8JcQOT0cAhNngAMiDuwgkTMiZDvMAHEI+IcFNL4MC4cEc+BvvC7aigIbFnRXDsX+IHmJxDxcV1+GzaQdyC/dhrjoBJ6Q5DCA/6XcGK36d0KxlPxGsMIXIggtKL2zwtaBEuYTaM8GVNT3Jg8q2wwxnwDYIPk5J6JAxc3NzwNSEScGIdCRg8FF9wHoRLOMCJCTRhQFqDs4/iAVGrmp5G9vUdcfVRrItaQoaLjhFH7Ba5rLcHgEt4QEQJY6AR/aeke94hwE0GwIkpFkLf6vcLroBLLIBMhP4VKZ7TDMsYZCb0W5/yjBSMFmQk9DPi0hgCMhJ6G5FpQSp1FfRfMbqoRajLMtV0il6vmWQ7m0etVuuvk7vkKMoQgBPzt++bu7KOXp56rN2QmQuT7uaFbZewfXrnB8kWJuxanP+QxkIOb/dbqHkmszlcqd8+8WRkH4NOSFRDmNdG8Q2Gb8c7u7u9OfzPFMZFnVpOY5KLQ3PNAsKE0qnvWxzPucxIY8GebhGeOtTzdgqeZ6SR+bKFN44fFH4MOrS8Bu+0uXX9v+BCobQzOltWOLEhklrQ0jqwMmzK5aYLUBNKd4FplkHYoRuDfS2CEXVnOuMYShhgwY4e863kFrQETqG69vrQcC81AC/RyxRwAYSXa1wtDMBhmGmBXqKzAOTgol1B+1AcLQzABQ3YKn9JvCxoCbrvt8cL6Kq7AX2JnQxtmHBoAwbo2EK1QITSDfglWrxctCPYlsqxcINNNKBppqtCqP7SIMEmG8dUcw3yUa52QQmUY7QnpAqgqRTfacBNsOnUNpkugHrXMmHbt+m0CCK0HRaGBQtcbZOvYMn+QbgAbZ0klt40XgJVTm0bqAaIELaeiUZ7EDe1nW0DZUoz4zPRAGvDtpAPI2zEBzQkUES07S5AfaRjNJUKwmFCmJeGOCBCLlCzlG0cbv/jZxpYtPDPIUYv0BlFW7QA5aEQeyf++oCM+LBV206MRG5hV22wJpMxmkzXQSvvtC2fCCpajNGyDbRoc6SiYA2X47O5ADmpoyUD1ikksR8npBWsddiRxYAd/8G1hnIULJ3ouOwUmE0cEyMuA4982Wv50BL3eIxEYDef88IFYAWY6Qwatd7DsvquKjAsJWwixu+n0MZoVyW/AC5yx73DAKb0h+qHiCMIjTi4+tqAlg+HGhQRTW1xOuoy1IIerW2IxsT4Vm8fwR1g8vCdfPBmDDPyx7MGX2wibq5xt2Lgur6k5CnX2pK39lAtfB6HvE4wnXuZ59++R4q3cYvpiPK+1QXVffl8enr6/tuPaCy5uLHXTOA697yb2RGdbc//PTk5aUJOPrmfQep/Uzg1t9IJdPelTxs0PGB0ALuaRmr2qdUSixOOzpLfbXzQzq/nk+yafQq4fTWsfE9aAo1os+CYEvoffQKNxFCAkRCOOCwLOVISxkWjIhxxei34jHNIwCgIR16JGVjACOei0RCOvqUuYBMVGjACwoDbv0ZXMMK6aDSEAdcOjDqrHt6CERB6bCqcGlHCoADkTxh8V7tvxCAB5E4IuTPKZ7IhGIMREIIuTy54EtJYkL8NQbebeJ2AogLkTAj9Ltvwbp/IRXkTwr/r4T7TTQfIlRBxg3nBeckQmYvyJUTdaFawX9ZGCciRUE6jrmyzXRVF6KI8CdEXRPZP2ZFakB+hznADZvc8KDEgL0Kd6TMJ1tWX1ICcCBkvv5xoSbRjkBehLDNfr789Of0TEKKuExzSzOzYE4b9QNkDsRmpCeVE6E8Ef5+ZpWQkJtSnKL7h8eMJoatSEsp6mur7coSuSkco62uUn1779oTIV6kITfvdEn/l8YGGkYbQ5Nvj8BXLHzNWTTR+QlmXm/Tfd+zq+8P9ZEhLhiWU9cTWHtdPc39/mDHdlZ0yBKEs6/ra1EfeXx7vU87O9urW/Alli03X01N7Gzw+IeuL+ePh28z9/d9/P0Fp8ulaGqXd3a3m1O3ePL8vVQsJCQkJCQkJCQkJCQkJCQkJCQkJCQkJCUWk/wNNlIwyqzMH/QAAAABJRU5ErkJggg==;" vertex="1" parent="1">
          <mxGeometry x="70" y="220" width="45" height="45" as="geometry" />
        </mxCell>
        <mxCell id="Ob0yJDUcJnIcGMKmv0vH-5" value="" style="shape=image;verticalLabelPosition=bottom;labelBackgroundColor=default;verticalAlign=top;aspect=fixed;imageAspect=0;image=data:image/png,iVBORw0KGgoAAAANSUhEUgAAASYAAACsCAMAAADhRvHiAAABFFBMVEX///8mJzD/S0u9QEN9NTsgISsAABMXGCQAABYZGiUAAAVOT1QAABELDRysrK7U1NW7u70AAADz8/Pf3+BcXWKNjZG0tLaAgIOUlZhCQkoAAAxjY2jl5ub/OzsSEyAFCBnGxsj91dX/RkbBQUSenqF1Iiru7u86O0K5LDD/Pz//NTV4NDqioqR1dXlVVltsbXHbzc7JtLW4JSr5vr5yGCJ6LjT3SkqINzz43Nzdq6vVlJXIbnDgurrDXmD+9fX7Vlb8gYG3mZv+kJD5mZn6tLT6p6eXaGuIS1Di19iRW2D7y8vapKXGY2X6X1+gd3n6bm6rh4n9fX3BUFLQvb/eQEGhPEDRQ0XAp6nnR0iGJSzSJSjmysqtIgt3AAALHElEQVR4nO2bfYObNhLGjXdlwAZj43fZC8TrteONX9ok29vcXb1JNmnT3KVpLtfrvXz/73GSwCAJsJ0W7LUzv7+8CNDoYWYYSWyhAAAAAAAAAAAAAAAAAAAAAAAAAAAAAAAAAAAAAOzIiz8f2oJj4MXTx385tA0Pn/HTs7PHfz20FQ+e7y/PiE6rQ5vxwHnxmKh0dglht5EVUwnCbgss5M6+6rBb3b3cNvYXgTORsPv7ttu9uvkmI8MeFrfXw+vXG4VaPT0L2RJ2v11dXf2WqXkPhg/D4vD6foNQYchtC7tvb67Oz5+PszfxIfBmWiwWp9O3ae1/e8yptCHsPj8hIp3f/JCPlYfnukiZDt8ktvIhx9zpReJp3/z4/JxydZqpifByWPSFKj5LaP3H5ZmkU0LYvfvp+Q1T6fwmd3MPxaOLYsDF3Xu5UQy55LBr/LAW6fzm1X5sPgR3a5mKw4sPj4Smd09llWJhN/45FIkk8ME+Dd8vb6fFSKjrj7dcUyzk5LCzf+FEOr/5ae/G74/VdbHIC/UpFCoecizsvg8vfcWLRBL454MMYE+sk3goVFBvJoUcH3akmjwXuDrgIPLn/UWxKAnF6s3EkKM8pa2smhS4+eXQI8mXYozpxduUkAvC7vO5LBJJ4O8OPZB84ZN4KFTxn2kqEZ1+jYt0fvPjoceRM2ISj/hXuk5/ist09e2hx5E3H4fJOm0Q6klcpkOPIndiSTzkuxShLn+Vdbr5+dCjyJ80b0oXKhZ2p57AKfcJSTwS6nKXsDv1BE5JS+IB/04QSgq7U122FElN4ulCiWH33D70EPbBs9QkHgq1MexOd9lSZFNyCpDrTT7snp/ssqXI/ZaoSxKKD7tD278nbjcn8TVSdbB2p6sTXrYU+bCLO0llVBh2p7rvFOfZDtkpJlQQdl9LAqdsfdclCsXc6bSXLUVe7xZ1vlCXQtid7r5TnB2TeMC63qRhd+rLliJ3X+BOnFBPTnrfKc6bXZN4KFQQdqe87xRny/w3CVpvXv7n5JctRaSdqJ0gL73Hh7Z7z6yGXxp2hOF//3dou/fN6v67C8J0Oh0ON3oWaR5Op+xcYTf962F1+/7Z2/vXnz7eDa8pFyL00PTuw6eX92/fvL/9ar9ZFVmtVreERz7kFzlwaJsAAAAAAAAAAAAAAAAAAABOjWP+7rHdrIxy72QwWyoaxtjpdbzcO8uK0Ww2qwa/5xght5Jvf7UedpDCQLpb6hzJx1h1x3F7/s9GnRpfquXYW6OnBRoF6OVujt1lR5k81cCBai413MnR7loZ+W7kEHRfMNF97e5o1K2mXX84OJl8bzJCb/KoyVl+4NJmHeiGMh9Vq7NOD6vs7x53ik29e5FhnxnByVTolHWkRTa2DMepW9l15T8GvGysD4y7BvUoZxmdY5eIPc3s+swKXqZCbdnnHL5FHraWoUw9qonr8YfGPZ0cK0edHIVMIhnL5BnUlxrS0QkSDACZ5nrS+6HBxAvLApCJ5msjXnz3iTuZ4Wvjq5fJxqSnXvx4tW4Y9cjJqEz9tFtYtVpNjNqx5XnWhhJ1QNs3vq0b5ATx4ZFrYpdsk0nOJb+bgZEigE1gPyZi5an62lmkmnPa9MeirJlmvRVdaXUQ1lxXw+rcS7pxdaEZtN0oVcRSrO2Qdwl1AKtfMugNemG7tXTpNYY5F0bOy1QziUXsAs8ULFZKX6RIImPqTZNNZ0gyBXnMIv7lEpnmfmmqho7XWGA9LOaNScztW+GsiHRsarxQbTK8ksUqoKDdnTCXtJvhPfU6n0cFmciDM32ZXFEm/PukESjT3LRpCpfiTRoxql1YOMLRQmFWF05HvJsRGrojPWnOk6lMJJ00OWdAKnHpgaPzV3QE45O8SZLJ+IMSUSpkWPpywwkIG4bGTDYodU6m2ogYhBxX08qBGi3MHrlrYGy4bHDanLuX5YuoasSlSgZTzIzamUwNck9kkus1NhmgeRMh4lf0jia7Gre3yFQjedVgnZu+yRnIVKXPTtswYxwQGuQktBjTnwM7lEkdOQrClZlnWW2PHZ3ROgLhpUfc0/bmmA6rFC0CjQ0mktlioTiosvkj9niZTOIKWsUjnTRabDKg1TqqYvTpkXF7wpR1tshkEyvHHZ3ejFmcycyOPSG3v3HpJF4QUJkUVVF7fEq16LzHqYRmDSrUI+rhKRUkuRc9EL1nqUyKruB1vhoo9HxdVzRvfUqLnuKG7pQsk39mxpMVK5j5djbcM0UmRRWjlaYxRzjU1PmB0JATHZeGRjgFYDIpOFoyGmt+bvGiC/pCjtijTMEKAV0iaHkpp6TIJL0i21q8jGEDD6wdV3tYE4UlYRuNzfcmLkOzsSo6n93Y9EBd/7VPmUidEbxJdBdXukm3TpGpJJ5LnUl+adK3DjfyRktsb2hcM5MJ80Ul60UcLO0kPGevMhXseV0N38CaG68Kk2VCinBSA0u+wKD5RU/vmb8xlUnsxaa+YwpX0Dmosc5++5WJZMuO5kZVYUmRViqTZRKigbzmSAAZsekBNRenv2tK3ECpTKqQuqhMUmTTN1hp3cu+ZaLdzNVSWCC7itBDskyqWDo2kexf7LYmP4eWoXMeQSazzTczmcQZ56FlokaPejjIU6jO73ntJBN9qcXrVDb5myV2Z1sj2tnRyUQY15ZBsWtwIuwiE1trqHRkliimZ6FRm3WaEwdrrFo8RpmYuRNWwJSjUNlFpgGrwHUZJL3krW6lXDIdHUUT4COViWRjLE4KdpGpUVLSiGTyJoYazY2RYx61TAWLvYnDTneRyS841STC+Ukf+xoh3TE1rDdHA/OoZWLlMQp3vXb1JlTpJhKM3V920TWz0hnV/NVNuSA4Mpmo/Yq7/mMXmej0X6qkJOiyi4KMFm/8scvU4ycFOxUECTM6EYetH4mzlSORyQ7XvCUW/ARtJ5noqog4sRCh68KKLnV2HDJZdcPAiat7ivKl3rTNsKojz0X8SD0CmeiOQeLd/CooNHcXmTwtaeobQd8K4ia8P7YjkImtSyQlXjoRj5a/7JKcdxJkYjujWF4F7YSLWLMEmZooT5nczGTqOsJy9JqawZahQ3NZ6cifkCRTVygifAZl1TUWLHjZOMTZHfuAIR+Zuqp8sz+Czept2Tvb7CiniyMvwiXJVKA1tSmGHffNxgDLWg/M/CYrNBNmuJ/PihkFd7g30KDPdkDKXnSIBceEOydRJqauuYjibjChSwDrr7FYgHP7cp7J9gTykYnNIzRp3ewPsGALl6qxrFpj2x54o4o/o3B5t6iV2BSsM5t1/CW2RJkKczZHMzp0uyjcgQr9i0WyrrT9ndzawiCPOzeZ/G1Yt9KddbP5DLpiBvNQje79ucHSnCHmdfZhmKI7TrCZmCxToc98U3cNB6nBfqYTZasmeyKmgXo9RJdrkDvO7U1X8NhOCFIdBxUyoSNuaLOBlqWVNButtxV830iRqdCS74V5uXvB1ri/ioLKVn7lJUni5bUJGX2+bVUwt7xB/Kq8jN3ZXvj7zcHStIURMhNkKlgTI9rx1zXFE1o79bARuRMSv3WE1PVAqyWESqJMtFlaCzcRCjdI+atrBkJiLmoHX3W4mX0sbrUmWDPpB8+mhiujxCV+b2liEpX+w20s+v1m8tqtNyfxZpqma5hLT25szN0S7cfFPSYIuU1/7W+1JrmncIXNN/uMyEmLtX18s0evFgWxRxNiMVYzqwvoPa32bDSq1jaVZOMd9+MHXrvd9lI+wqL9VL09/R+Dvf7oAQAAAAAAAAAAAAAAAAAAAAAAAAAAAAAAAAAA4Bj5P5JqFZ93I2r4AAAAAElFTkSuQmCC;" vertex="1" parent="1">
          <mxGeometry x="524" y="278.2" width="88.88" height="52" as="geometry" />
        </mxCell>
        <mxCell id="Ob0yJDUcJnIcGMKmv0vH-7" value="" style="shape=image;verticalLabelPosition=bottom;labelBackgroundColor=default;verticalAlign=top;aspect=fixed;imageAspect=0;image=data:image/png,iVBORw0KGgoAAAANSUhEUgAAATYAAACjCAMAAAA3vsLfAAAAe1BMVEX///8AAACUlJTj4+Pe3t58fHz09PTx8fH8/PxfX1/u7u5/f3++vr75+fnExMRiYmIbGxvS0tJAQECgoKAxMTGHh4dxcXFHR0eurq6ampro6OhoaGjW1tZZWVknJye2trY6OjojIyOmpqYXFxdQUFAuLi6Ojo4lJSUPDw83pxemAAAJcklEQVR4nO2ciZKaQBCGaQ65h/sSBERwef8nzMwgCKuLiVtZMemvKlW67LjDT3fPP4cRBARBEARBEARBEARBEARBEARBEARBEARBEARBEARBEARBEARBEARBEARBEAT5TXbEe3UX3hDDl0j86k68HyQPql59dS/ejwQgeXUf3pBdC/qr+/COpACHOM9xYPgjCJzAFwHMV3fkraCCDeBw+gfsB83SzIfeycju1f15Fxwqmltnguoz+XrU7ffIIcyVJqlUgI7qphSv7tBbQC6VrYyIoPJXB/S+D9iZIdXpVOdnsss0ofEHCU1iv7pnm+bAREr0hJW3PhaOkMStRTzP08/Sdz5Xe1njHyEvY3/0H71jyZogQxHQJI1prj5tf0n9nYHlDOLzjX8EVXHHymaSNNMr+qjJnl6QeY0LnvpQmYWw/GyXrJL+4Wcb/wzeEGWtmcqGIEvCWNCM1Lca6kuy871WsmzM08jeqcZekuWCt9YIz3t4LsXVpuPP66nGP4XBoszpa1nQPHGcIqheQNOWmZB9FVn3mnGpT+5HGXbHUw8TPDb1yxvjmQ5Jl8bbXliIaPmSqQoinSkoNPYCUXFqOkJEsr9WmgK4D2EXxe/IZvjvIFvnCzRE5DihIlnpcegxv990NcfsIaROURBkmShG8TwvtZi/edL6yfX2ZStFD1KqWJTuGtZdFyopZQOC8GhzgRkWFqAjBhPSnl98diTdbV+2KLSgjwjTC+CDZtml0heVdbeoXak+ySZoNFYXF582IOwBOM82/hEkOPTJpRb5ejxFWBRF6XpL+bNsTKvFxadnGdHmZZuGvfbcznVqlfyBY7uVjYbb+FL6lmzi9mWz2A26DbhWVdPbFawhS82U3DVsV25lE4zJ4P7zstnQU9/V+see2Yf9dTZlKGvN7sp2RfpWbXsD2YTDiRkJZj0S6hiUITXpHav5erv/XLaMqZYDsJwUzWoYP1VDMB7sm/5l2bZtQNiktIQ+hpyGWhDUijzUNlsojuvt/nPZNHD8U8a66Ym+V0y1za7X232STUnmKv37sjFH34cAXRtBbvBb1fi/dr/abCnbbjkFlb4xuXoT2URoqXCg2HpT2TK7+UKIBM97sF62lK2Acr6SdE82OdP90M/J8qd2Gre+nzhn69p+kk1KLa+Q9wZlc3sbXp051LoJWuIZe6FRWMBBQ+9yfXY1l81W4+XJm1vZqnpcJVnsYDfX1RN/+uEkm3K9Cv03bvFvsAPCPG+yhyDfq6aT0McOkSAn6+vSXLaT3tblsOC2WFfkss2y1mO7PEowTElmsxGmSxJlw4rJFG6TbPvgMKn2wEb+PId439MstVIiCk5xZOdAIldovHXjJsOSRRB9ko0vz2UCy+VF2WIbjTxp7TMM66IccfYUmKKnTN7gLloFbGU8VKS29eGQhjQ57UzYa8nq9hGXrYtzRz8k7rpsfOG95i+ZS6ynz9Wv8jSzKJzJ5l303iAqZDRZfIhJDQl95pe7sg+rC5Vctmh4rUWfLNxSNr57PcQSk6EcQ0ejcrfjLykwRfdVtoo+zqd3cv42Sj9sy9Obiq+uww6qtUZctulcV7gmm2D6eXG90E2y9WOSCuN2GWeSjaaus8H0vOBBwEo2nB2IZgWtWC1uS9ma1dq2vNBNScr3DcQbW3yRzc43fnAsMfkYR0ji+JYw3Ua49qSXssmw0JjLds8us1bhYshkj+uTKRtkM8IvPmMzVFEyegizobLt+I3ZyppzW8omFItb/0o2I14MCfa4s60syiiTLRnqxuZsx4KaW4SyrmhmEPkg85mp2KwtgnySbck92Ywq4qVgJtu0vUezcZbS09lOyqYPEzfmcehlV+0hhDJivd3LaznyZ7LtUm5cS7a4589/M7gj0CCby7wcfGx3SKCEPDF4b4FtLPB6rq9V5D+SjSsQE5u3Wsgm2OK4qz85DS5bzE+vAzxYLX0taW7SWt2fQJcthenHzMfOXMmRP5DNqKcs3N/IRoVrSi7bNHtgsnXsBX+OD3bQXktnsQWkw0kStJbGXcrqj7E7l1/OFH5fNru71nZ24bZiakNajkP45NuGCdyWT8R6UAALClHYs7scna735RcVHss2jo7NLAPluWzkOlLz/ehxVGCyDbMHXvn6LbuQPOaPnA6mfAqZc+FsKfsqR7zfli2ehd5CtnB2lqubyXaeZBuOepabW2y7YoPFdTNVvit+2TsiQvlFjrBJ+Ze2Sp4PjXzV7DKHIkPkqVyhELrJWtNId8eCwM3d8HLHR/jTU4eXfgYLpMGFiOqpDhwAnkI76f6BK40f3uu/mGfzB5BcgoQPiK6nCZqUDWOmO4Qilerjoi2TMxpbu7OsLoYWDw6kvJL8zOOi/6h1cMXsMMjmNd3tsKCS9uIaWrO5kW5/8au9yQ8v7QaHUfr0qRzHZsyOca/bihWp2B8ep3KeM0gbpTzOq6GBb5436nztE4+LvoTwaLoQD3K0hnl7IBQWfJqLG7NLJ/aDYnyXkMtXIBr+i9H8Q/SLavMpAt/rngxxK2yTIilYWbH2VQu5n8QOe74GEfQb15ueG34Gn1RNJn5OIDuKzkFaWRa9OJQ0Iwp7tz3z6CGt3ozOX2pin80bIFSmUEr9Q2yexSAIsqGBILp1q8dmtFkjkkYCzaIyVYXCrTIz9g884pq/OqO21bf/ipdTyUOe0hhIkimd2qm8I3ehto1VJF67cz7nYftXWnIE8rDtf4zWKZcj7t0hD12Tjna8LlPnEL99Lv1FtDZW+dgVgk4tetDEOrfyanCE7JMTsb/1nax/DCVnc6OPkikH/ETvpa4V8amaC0eO5YMTl/8VKThHcKlV/+iZDa2vti2C/vqtP+ZDMdxmFO6wWsk5JqUnj0GW0sGizgb33l3XSRDOToHS1GE8ec9WEPdVpufNTij4cQ5dzLhtV/nCxkZnPS/A83UxmA4J0WG0K+HDykGRBc1S2CSzbrk/KZVUgdBx2hbrHCP186rRZ8pBo8ak7MLcMiQfTI8UMgn4sNFBdI7d578/+m/R1Iq6E+tcp1Us5FNHMF3HT1q4S4m+7gKJHcsgQdBc1ypOQGcMN9RR4216Z+6HsYminKNzpOi127vJrWBdREiME69bNBpvSu7EUWBJe2IR2VN4RevrVg+wnj1AlT2SZmcljuNIbKxC2v7/OYEgCIIgCIIgCIIgCIIgCIIgCIIgCIIgCIIgCIIgCIIgCIIgCIIgCIIgyGb4BavafR0MH3ZvAAAAAElFTkSuQmCC;" vertex="1" parent="1">
          <mxGeometry x="350.6" y="286.5" width="100.8" height="53" as="geometry" />
        </mxCell>
        <mxCell id="Ob0yJDUcJnIcGMKmv0vH-8" value="" style="outlineConnect=0;dashed=0;verticalLabelPosition=bottom;verticalAlign=top;align=center;html=1;shape=mxgraph.aws3.cache_node;fillColor=#2E73B8;gradientColor=none;" vertex="1" parent="1">
          <mxGeometry x="590" y="250" width="50" height="40" as="geometry" />
        </mxCell>
        <mxCell id="Ob0yJDUcJnIcGMKmv0vH-9" value="" style="shape=image;html=1;verticalAlign=top;verticalLabelPosition=bottom;labelBackgroundColor=#ffffff;imageAspect=0;aspect=fixed;image=https://cdn2.iconfinder.com/data/icons/gnomeicontheme/16x16/stock/data/stock_data-tables.png" vertex="1" parent="1">
          <mxGeometry x="150" y="330" width="16" height="16" as="geometry" />
        </mxCell>
        <mxCell id="Ob0yJDUcJnIcGMKmv0vH-10" value="" style="strokeColor=#dddddd;shadow=1;strokeWidth=1;rounded=1;absoluteArcSize=1;arcSize=2;" vertex="1" parent="1">
          <mxGeometry x="414" y="346" width="120" height="60" as="geometry" />
        </mxCell>
        <mxCell id="Ob0yJDUcJnIcGMKmv0vH-11" value="App&#xa;Engine" style="editableCssRules=.*;html=1;fontColor=#999999;shape=image;verticalLabelPosition=middle;labelBackgroundColor=#ffffff;verticalAlign=middle;labelPosition=right;align=left;spacingLeft=20;part=1;points=[];imageAspect=0;image=data:image/svg+xml,PHN2ZyB4bWxucz0iaHR0cDovL3d3dy53My5vcmcvMjAwMC9zdmciIHhtbG5zOnY9Imh0dHBzOi8vdmVjdGEuaW8vbmFubyIgd2lkdGg9IjIwIiBoZWlnaHQ9IjE2LjAyMDAwMDQ1Nzc2MzY3MiIgZmlsbC1ydWxlPSJldmVub2RkIiB2aWV3Qm94PSI4Ljk0MDY5NjcxNjMwODU5NGUtOCAwIDIwIDE2LjAyMDAwMDQ1Nzc2MzY3MiI+JiN4YTsJPHN0eWxlIHR5cGU9InRleHQvY3NzIj4mI3hhOwkuc3Qwe2ZpbGw6IzQyODVmNDt9JiN4YTsJLnN0MXtmaWxsOiNhZWNiZmE7fSYjeGE7CS5zdDJ7ZmlsbDojNjY5ZGY2O30mI3hhOwk8L3N0eWxlPiYjeGE7CTxwYXRoIGNsYXNzPSJzdDAiIGQ9Ik0xMi4zIDcuMjZsLTEuMjIgMS4yMkExLjcxIDEuNzEgMCAwIDEgMTAgMTEuNDlhMS43NCAxLjc0IDAgMCAxLTEuMzMtLjY0bC0xLjIyIDEuMjJhMy40MyAzLjQzIDAgMCAwIDUuOTg0LTEuMzgxQTMuNDMgMy40MyAwIDAgMCAxMi4zIDcuMjZ6Ii8+JiN4YTsJPHBhdGggY2xhc3M9InN0MSIgZD0iTTEwIDMuNTJhNi4yNSA2LjI1IDAgMCAwIDAgMTIuNSA2LjI1IDYuMjUgMCAwIDAgMC0xMi41bTAgMTAuNzRhNC40NSA0LjQ1IDAgMCAxLTMuMTU3LTcuNTk3QTQuNDUgNC40NSAwIDAgMSAxNC40NCA5LjgyIDQuNDQgNC40NCAwIDAgMSAxMCAxNC4yNiIvPiYjeGE7CTxwYXRoIGNsYXNzPSJzdDIiIGQ9Ik0xOS42MiA5LjE2bC0yLjU2LS44MWE3LjEgNy4xIDAgMCAxIC4xNyAxLjUzIDcuNjIgNy42MiAwIDAgMS0uMDggMS4wOGgyLjQ3YS40NC40NCAwIDAgMCAuMzgtLjQydi0xYS40NC40NCAwIDAgMC0uMzgtLjQyTTEwIDIuNzhhNy40OCA3LjQ4IDAgMCAxIDEuNS4xNUwxMC41OC4zOGMtLjA3LS4yMi0uMjEtLjM4LS40Mi0uMzhoLS4zOGEuNDUuNDUgMCAwIDAtLjQyLjM4bC0uOCAyLjU0QTcuNjQgNy42NCAwIDAgMSAxMCAyLjc4bS03LjIzIDcuMWE3LjEgNy4xIDAgMCAxIC4xNy0xLjUzbC0yLjU2LjgxYS40NC40NCAwIDAgMC0uMzguNDJ2MWEuNDQuNDQgMCAwIDAgLjM4LjQyaDIuNDdhNy42MiA3LjYyIDAgMCAxLS4wOC0xLjA4Ii8+JiN4YTsJPHBhdGggY2xhc3M9InN0MSIgZD0iTTEwIDcuMjZhMi41IDIuNSAwIDEgMCAwIDUgMi41IDIuNSAwIDEgMCAwLTV6bTAgMy43NWExLjI1IDEuMjUgMCAxIDEgMC0yLjUgMS4yNSAxLjI1IDAgMCAxIDEuMjUgMS4yNUExLjI1IDEuMjUgMCAwIDEgMTAgMTEuMDJ6Ii8+JiN4YTs8L3N2Zz4=;" vertex="1" parent="Ob0yJDUcJnIcGMKmv0vH-10">
          <mxGeometry width="30" height="24" relative="1" as="geometry">
            <mxPoint x="15" y="18" as="offset" />
          </mxGeometry>
        </mxCell>
        <mxCell id="Ob0yJDUcJnIcGMKmv0vH-14" value="" style="sketch=0;html=1;dashed=0;whitespace=wrap;fillColor=#2875E2;strokeColor=#ffffff;points=[[0.005,0.63,0],[0.1,0.2,0],[0.9,0.2,0],[0.5,0,0],[0.995,0.63,0],[0.72,0.99,0],[0.5,1,0],[0.28,0.99,0]];verticalLabelPosition=bottom;align=center;verticalAlign=top;shape=mxgraph.kubernetes.icon;prIcon=api" vertex="1" parent="1">
          <mxGeometry x="320" y="346" width="60" height="88" as="geometry" />
        </mxCell>
        <mxCell id="Ob0yJDUcJnIcGMKmv0vH-17" value="" style="shape=image;html=1;verticalAlign=top;verticalLabelPosition=bottom;labelBackgroundColor=#ffffff;imageAspect=0;aspect=fixed;image=https://cdn2.iconfinder.com/data/icons/competitive-strategy-and-corporate-training/512/177_frontend_interface_mobile_phone_developer_app_development-128.png" vertex="1" parent="1">
          <mxGeometry x="590" y="320" width="128" height="128" as="geometry" />
        </mxCell>
        <mxCell id="Ob0yJDUcJnIcGMKmv0vH-18" value="Backend" style="rounded=0;whiteSpace=wrap;html=1;fillStyle=solid;fillColor=#00CC00;fontStyle=1" vertex="1" parent="1">
          <mxGeometry x="320" y="130" width="160" height="60" as="geometry" />
        </mxCell>
        <mxCell id="Ob0yJDUcJnIcGMKmv0vH-19" value="Frontend" style="rounded=0;whiteSpace=wrap;html=1;fillColor=#0000FF;fontStyle=1" vertex="1" parent="1">
          <mxGeometry x="480" y="130" width="160" height="60" as="geometry" />
        </mxCell>
        <mxCell id="Ob0yJDUcJnIcGMKmv0vH-24" value="Tables:&lt;br&gt;&lt;ul&gt;&lt;li&gt;&lt;span style=&quot;background-color: initial;&quot;&gt;Customers&lt;/span&gt;&lt;/li&gt;&lt;li&gt;Transactions&lt;/li&gt;&lt;li&gt;Articles&lt;/li&gt;&lt;/ul&gt;" style="text;html=1;strokeColor=none;fillColor=none;align=center;verticalAlign=middle;whiteSpace=wrap;rounded=0;" vertex="1" parent="1">
          <mxGeometry x="150" y="238" width="60" height="30" as="geometry" />
        </mxCell>
        <mxCell id="Ob0yJDUcJnIcGMKmv0vH-25" value="SQL" style="shape=flexArrow;endArrow=classic;startArrow=classic;html=1;rounded=0;entryX=0;entryY=0.5;entryDx=0;entryDy=0;" edge="1" parent="1">
          <mxGeometry width="100" height="100" relative="1" as="geometry">
            <mxPoint x="235" y="287" as="sourcePoint" />
            <mxPoint x="315" y="287" as="targetPoint" />
          </mxGeometry>
        </mxCell>
        <mxCell id="Ob0yJDUcJnIcGMKmv0vH-26" value="" style="shape=image;html=1;verticalAlign=top;verticalLabelPosition=bottom;labelBackgroundColor=#ffffff;imageAspect=0;aspect=fixed;image=https://cdn1.iconfinder.com/data/icons/nuvola2/48x48/actions/kgpg_identity.png" vertex="1" parent="1">
          <mxGeometry x="332" y="210" width="28" height="28" as="geometry" />
        </mxCell>
        <mxCell id="Ob0yJDUcJnIcGMKmv0vH-27" value="" style="shape=image;html=1;verticalAlign=top;verticalLabelPosition=bottom;labelBackgroundColor=#ffffff;imageAspect=0;aspect=fixed;image=https://cdn1.iconfinder.com/data/icons/nuvola2/48x48/actions/kgpg_identity.png" vertex="1" parent="1">
          <mxGeometry x="492.56" y="210" width="28" height="28" as="geometry" />
        </mxCell>
        <mxCell id="Ob0yJDUcJnIcGMKmv0vH-28" value="" style="sketch=0;html=1;dashed=0;whitespace=wrap;fillColor=#2875E2;strokeColor=#ffffff;points=[[0.005,0.63,0],[0.1,0.2,0],[0.9,0.2,0],[0.5,0,0],[0.995,0.63,0],[0.72,0.99,0],[0.5,1,0],[0.28,0.99,0]];verticalLabelPosition=bottom;align=center;verticalAlign=top;shape=mxgraph.kubernetes.icon;prIcon=user" vertex="1" parent="1">
          <mxGeometry x="569.44" y="378" width="40" height="28" as="geometry" />
        </mxCell>
        <mxCell id="Ob0yJDUcJnIcGMKmv0vH-29" value="API Key Authentication" style="text;html=1;strokeColor=none;fillColor=none;align=center;verticalAlign=middle;whiteSpace=wrap;rounded=0;" vertex="1" parent="1">
          <mxGeometry x="384" y="208" width="60" height="30" as="geometry" />
        </mxCell>
        <mxCell id="Ob0yJDUcJnIcGMKmv0vH-30" value="Streamlit&amp;nbsp;&lt;br&gt;Authentication" style="text;html=1;strokeColor=none;fillColor=none;align=center;verticalAlign=middle;whiteSpace=wrap;rounded=0;" vertex="1" parent="1">
          <mxGeometry x="534" y="208" width="60" height="30" as="geometry" />
        </mxCell>
        <mxCell id="Ob0yJDUcJnIcGMKmv0vH-31" value="" style="shape=image;verticalLabelPosition=bottom;labelBackgroundColor=default;verticalAlign=top;aspect=fixed;imageAspect=0;image=data:image/png,iVBORw0KGgoAAAANSUhEUgAAARUAAAC2CAMAAADAz+kkAAAAkFBMVEX////MBx7JAADMABvLABjLABTLABHLABnLAA7KAAbLAA/KAArKAAP99fb++fr55+nuvcD77u/vwsX23N7119nprLDyzM/klpv44+Xij5Tz0NLfgIbrsrbQKTfghoznpKjTPkrXVl/ZYmrccnnddHvOEibaZm7hiY/lmZ7URE7op6vOGyzRMT7PJTTVTFbYXGTWmvriAAAVmElEQVR4nNVd6WLivA4FhxQoBbrNdKMtXegyUPr+b3ez2rLjY8kOnfmu/s0UgmNbR0eL5cHgX8ri/OFzuL35p2Ogsjx/vHr8/W/HcPqt1Gw0zNTrvx1HI79fN0qpqVL7Az1w+Xj3fhH3ldvXE3U0rEUdYgwXjy/r3dNj6rfvJmoyboazOsR45s/Fmk9VxICWVxs1yYatqLO+Q7h+GCt1nI9ytU75+mqnZmY4+Vvf4RRyOZnV77aUfX75+KnUeEhEzfuN4PTTvFT8Ql/f5GpEhzP67DecUi7aN1R/+A/PV3dfSuVDS7K81wB+bekDJ1EgtTgtxjPN7PGM+gPLPG+XffrOfvijULXx0JWj5/Sfv3xw9t3Rt/zLZy9KTUad8RxAg95mWg8+uM++qM4Iqi/+Svzty/ctxYPYWVmpmXc8M355uYGZF1WnzGf/+CclEVbObjZq2l1o+ax8qMwzmOEhbNDeqDT3cgswivwp4Xfnr+qkq4vlrEi3/wqsUfEikSSjI9fm0TmHUY9oq3B7zCO/T/ybfzg8fokeeWdA8eOx5cEMjn25bXe7l5Idx//sOdr8BSjcyR6xy9ET8t6G2WAda17PweJIX4PIEk/KcCrzqtDGlT8BC9FN1i7vweIkaPH+yP+o6nGsJSwFYVz1hPPoAdmyJlh7Hf4o0uPRLvpXL/A6y7hkofnTwBN6Mu2LCKx9BfCYQFbuENJWz5Ng91lgXsf30QOy5VWOtXM0DrWI/tkjvPuL50nCI3eBrZKAc5YszJtmR8xnP8CsSA0pkdOQAolgCi5R9YCeHI5w1RMOt4deylWM4Tb6Z5+gTa0eKIhKvJ+EHiB0/ZHsRuJHofUdbaN/NYQJQ5FGLkJPyGbRI7KEuEAsaf9EZllkRy1Buti81IZ/wlXoCWKPAcjLsXk5xsRDW5oQhbv3U+RGBIY+xFWKEaXGOGshkDUeMp99nfiHkOAYBsmK6InhzZYAdFQIZ1ZX4Y9isxxPI99DZEVkV49DWyWFKVDZGqvC6QFanZTQ5DD4TsMTZoGCHlAho3X8kIj8Ng9nAz0bYJYFMc3Az3qFZxvhrTJ7iB4SlWfjoXF0EnnLKdSAQLz/kZxOooBg+/2EYI8RwhrGHOdA3jLrO3mE2SqskwrpZPv9XhyOQAXHOWDUK4Fbh9n+kIc4HJesJOOsaVg2cqxFLm6WEAkMs/0hH10EAcFW+iRhbKxlHgRJU4JzGnTrShl/hR/A7bV+HO5bjrW/oALFB+Hgs1rJGXP4Fd4q/TgcxVrO8fgC8JbCDBBua2H2H7SGelb6cLgr44pzWAsJRkIQjnGX+dGsma2SEC4lMpRj7TeIPGcJyxKmpdVogmaNo4D94nDncqyFyxtXO1DLjlnqYlYuQ99nFbBXHI7YRw5rb1DYKzx+rwTSffqpIRJ2yW81jgMGZBnBazNglkcJkfRgtKh5rdD3WbKTTeIHpeXdRMg5rIX8QJa2sQVZMzLXIbrCRGaGiXUArdCKNiajhCKTKSaQf6vwa70xjmW/XCpZfy7ICZHgOCE6ehNI4jQSsiESVOqRS93LsfYORCaTOCTjwlSPDSj0CxoL+Xp6LWcE1sIUA+eu+IS3IMHoCM8AeZoekAisxS5QfMKDlsrgWcHmPpicrqVP0iOXYy1kXSlpfyZgyzzXykigb6c7zBFYC/d8ShTjVqBA2Rh+/UZ/fbRG09LDYY7AWhhjFdUNOCJRoIBzd6J32tENNAHJDvNSHkOAIaIkVBsLFAgXOBi/cvZ+BxarR+HKjRxroYfLJdV8IlGgAAszoKTm90CDUvzVRkbykxooC5RECwQmJODymhj25AWmCZJLxC2sZSATBjO4KKJXJBYIw6XJc6olDoMlFx9HxBCeUaFjCq+mChSofgRxBBMPKjwNmHxPLj6OwFrIJZPOvRAFGu/gtKD3MqWexX5AwcH04uMIXguXJMkxJcnhCbSsyIiYjXZU+NTuaaBW0jPMEafiMNYm5CyJAuXff1B4D7FKo/aFR7CECpSaYaZYy0AmxtqUjXpHS1hvkDkCu9DEZfJ1qBQgNTpJeS0DmTAamLQk1PeChVPItJoQQmkgUJQm+ZjfQbA2JTR6a/GBN2jcvIbZDKVyCNBypRRIVEJ5LUNPYeA5KeNiKVBgG3oRyzhQ1TYdAbBNjk4ehNemUCVCUQoPDiYAvYbZJP+rGBkG28ToJMEpLhgOIS0pZWkr0GCDkineZxuGUMEOTjoklvM8ybEWMaU0X8NWIOjH+F0QnZDKpuU/IdieJAxsYAEod5YBx0iTQhiZpUBwVrzIYPzCmnaipGpqOQ+pQ+CQCWJtkrPuKBCccq/HbCq56wVBYJsSSS6F1nwxOghDownJZavuuFQgXP3ucVcNmayNHwbbtK4rFGsZ0w55bUpy2S4LWQTiTz67aBSm/isG27RjdbS+lqGnOIaQEkS/tBUIvlg262KW2VdNshKBLVtF4BeKtcwJmiDWLi9Pf129vq232/WrjCFQ7lgiB0oy+TxmQvZrnoTANiXDO7ACA5zLHThTUbYIUmo6ORqNx/lMfUosEqlEqLb5FXCZPVbErE+r9FCB0lJBFGsZ53KLCyocA6AEK3ThckeUu/YslikpasAUg21SKogAaOmOh0QUjW8Hw/8yKZaqTS9yDj0EUZP9lvYeGGxJ7QdXO8adP4gcjKtA0A3q8m2DQO2YIdgmGUeS8ArVPi4uTt+f+III8iz2l7tNO5Ab1CVRWpX1WTfkbqelgkjCa+IPBZz9/njblkjK1Z5Zg+EPM9NTFLWKoNqezgyfO2R/EGC2SakgcgKyS0+vT2+esmJCwseRvIPhwwr0dHDFw5Dd757WIAyu2d4YbFM4NyFStrt+ffrweVxukOgJqcbCR6DIezQBX/RmneDGhUP2B6GYbcKk0Eiprn1cnr7viw0yS5uQQsaCSbGOfNaUArkTHc02g9auAKI6aYXqZCDlrM5/f3yPywlJnI/6LYYSf4zUYDZoioyry8PmLtkfYLBNCpuuKJE6fb0vtkjyDtEvsZfwWgIi7RERaXcoE80woAHNV0qhOuk9M8x9becSJkXWSoP4PK0dQeeZXeTW62ZYJ47MJASTBdW/sSKcFCsB1fgZiCQ6hJDE4PQmOijYikpHomQmrAwn5FE33wBebx2VNaIZMOlWgNzW6HTmcvU6Ovik5NJqW9pMqw2Kgkolx4wYLkFQGMV9osC2mJGCrU764mpHMnGtEz3d2EImoKdOqZD226iDApmtFGznp3fljLCHLFJEnGmmHZKG3f+zxI4jnHUZXF+wXZw/3FcNrX9G5F2yCTXRL4fOKNh0hQRWjM+I+J+gO8/lx97bg/ZgEtGziIYvWsqHojf2BtRdwmhBCWI6DNierd5GnUbFh5YIR8xAmknLQWpLg2nELBMCjc4HhSKutzeF2gQ7sR1EIgKkZMebkAOkthTBtVm2Ui0ocopw7mz1PPV10D28SDzCVmh6WcfZUDSNxsKIWSbWBTcM8sahb5/+xiapBxAT86KFIfo/AbW18jk632GVEOHsmu/Hv38aSbTkUfkFJ73cCHB7aXsBsyms3n6oHY03Ewo6fB9eMrWLcsJoetkoAjhyRLNcpGKFgg0qp/P2Dv9LGyVXo8jY6NYN7lcCqmWpHdGpKzshiI5wecH28+dBNsuV+owNYXSyY7UgE2QKLUgQm5IAeAbSW2DBtPTpL5lST3/iy6tocN+cCEdRW6Jj2qm2HUYUDwEVSrit9kEk26QdpVh7W3+idzOm+9prlvHqg7KTa/WD/D65YpNsCmpfUODIOHi6kNQpK0ZRIjS+y/wnbXNiITixo7Q4C5VpGGujc8vKfl3YNRV68Ks1uPGiv6R2MKSxSaKCHyB3oZnYym+WAzUaAchbvgfbm6ZL4rE1YjGs4nhEOvSsaPvr1OmgCESWBcdx2WNaMoxMiadhaWiFurSgTEMTfuIC3aIHWpJcTx2ekHyq1OYTTUtiZRV9e+v1QJmGNiR6L7mFicirZI0B07eyK6NZ4Vbub87PAgcOPAnC60segFEVHshzteel5sAs47QhX75/J5+W7Egptbtb1e8HI6LdAzOrfVUa9xSmut7QSimA8LdJZr2wbiIEdlISlO/v+b4vpc4UWyR//rg1iCE+Y3jZXiGWq20oJkfT/dRyohhJ+zu6daAbX4P1HZIE2Y4pVBofKzX7fD91Jhg2+HbIyim5K24UCvXbR1+MQMJfhyhM8MHdAiiSLTpbvbjH05KfKPX18sfD32HK1SkstM1chhMOtKf9N/iDPSu1/deR2Y5lQbuZbyhdyafv6+UWUU9X56C2D7a7cMiKU96fw6oRt/BYCyT81b4jWOuCPIpkS89K3ajOdim2yK+Qi4eQzCErbe3EqJ0cWOR6jxo6wgh/NQs60t0FedQxQpzGXL44BTtcwhEeZnDISlM3p9bbhraj7UvLvtbWX2CEv4JuDW+dSCgKrsS0Pl6c3hE3hL03TNh8poHCcrM35dWonrNb9tUKjPBfDyysdVUd4VFkIwsSjWAz9mirOAtRc4lqHI2dRE1kPrtVK42gcEBlcvTqdAtWkastBNtW6NVaTLIPVoE7YeJ6natxNEYLtOOnjamcmg5YrT6nWtIdMZzNqIOpxMNkTzphtm8jdD0rVbCkGSRgLHSfOvMGb3wbEL3zBC9gcCWqPw41jUwOB6bk3HLNetSlPrYAAPxp5BkOAjX8A4q1XetwALAdWK2luAMIuFOeM5011yjm6rohcwhsja+TjZw/ARJdGgQNqB4Sj4IrcWAbc4cH7krqTGcDsepy1Lwa2L7QMxzAPkblVUo6jeopMUDQFwe2EfclQXe5O53NmRZ9yTWIbNzhi/EWID5ZgLI5+O/xgqFBjwFbcq8A238Dd0nqQKltCCCKb+wjqfbAwKzsjCL7MhnfhwBbagS4tj7IXfZ0FLE5MPINQc6wEoTshdXR8VqfYUOK5wZhggLi68w72OLhftZKQ9PWPRBkBJ732Ou/+MwK0vIosKUJKu4wBOxP7PP8yEaewCDy2j0QRAStQf6tuxr5Ll5EjloU2NKLGbie36iqyntq2mjmaINC/57zDEaQOzPabzXWeqAC+pQxYLvxlkh4BfZq9S3D3BysxIpJMK3b0AGWK+myKG8iAyaRIsDWX2PkFxxv6prHxZfmrIHYBG080Jk69kYK//IDRhzFbGkkmdtiqFGRr4R1p0lQwLARUuBRQjZl5W/CdQiwjbi0HBfgdfOoe0LO8M4lu8Fjxfj7t3xdVBDfjwFbX5k4EnhGpotHz2RogdwzJbbdBBtbgeSdbxjWjADb75BiOzIDAdsuHlkJuED/For03b9ys+LHQcj35WBLDypxkRXcKdZdBcc2QtN2HUZ6blb8DXdA660YsAXVNF5BV7l3+mm5e7i2Qav95skxVZTYeuwUcy0ZuOQW8P0YsO2cNQ8IKuh28YhQ0vobJas426l8PHE8ERqx9ewnZq/4lxE5TxFgS5s1cIcDsQI5bH+jZ3rc4IYaXB9VE2D7cuQFvMdTuFnxLiM8OyMHWxqa5I58IcrokgaDtJk6q0stZu95PVO2k3jKqG94VkCADJbSyatdjQ3gm+0hBXIcNKI/xUQ3bLg9+mNPPT0m5atxCbM4sPigt0/EzZxkt7EtSbAC2S9kOPz0teM52QtmTtT7T5wFGT9qLgtCqBFgS9k+1+kIUTjH1TVxibowz0rB2+hB1sTvFARnBTWXBVt6KgdbxSwWFdSV24knkX4FlbZYDqVNMCioeZlH8AohYDJhyYsYbAnasXZL2uJPm/qGNdHI0fG3/6NI6UOXaCGTifaXHGwp2+e+hBTIofPG2DZARRA1szkJCTiB0svQlbto7UHIKXCpjiMksMq1P8NXTDic1Gz6qqLvYkucEsf2rxT6i2eAnbd0E2qtAP4gv8SP9vXgSqqhijvZCtqsfnX+QgrjOo01aMAJOEr4NguQyYchJ/mhC4ZvW4LaoLh7nxIvZZVRdfDcQD08d40vUoWHKII1YwIhaM13BkbX7LnqjQNFEwe5CHzDtAjsPA2DE7CDgBRsqcPKmS3xySxMMdztSE9fooXHcWIUCQZ0GMJQR0wakL9KAHXTmrmMONDW1cmqGO3AzWZxAQT6Bsj4isGWLD/fpgUlUruMGHbmdzJwS8nPoy3aWQwtoKRUDLZ0B3MdHhBh9MS34AXNjp5QA4h7pgE4wwMG+CwGW+Mv8HfMoWyc58S0T4VqW2evF7XLsT8ciKX2BFsCi/wdc7A+zRP/vukMTD1VM2CXAhq7HDSAXl8PV6lBE8S9YSPUXeYmEjFvP0yubcMxKhhiXc1Nh0btcqjq2WvpcSwVEAPxBTAnPIfifgu4lIs1+Xim7q9by0BnhfrLwXixp69DoEoNmKCZEGxpcJA9QAnPCgCe8aCmtSU6UqPaHu8KDJ7SlzGoyLlgu86PB9gVqBuXgi0NDrJtm0FoBVe7LN+/qiNk361yLJ6V2pHfIZjMJVwWGwfUQuwKmSDZIWvijbJVkzhqHirNnV9cWHA1t/5F/WUuY3mW2a8aqlLzZzelpV+8F0/kAClKV8xOF1w9u7T72AWmEfAqKdjSu4HYDwNim36NIg0RSNofXtNDaaEqNeCFCa82JArEtxtHrk367axWdkQST6Vn9UJVauAwsrDFooxudz9s/1batSql0BNBosPy1GQGfhaEUYVga7iqIFMPjqMkX403oAosdWbf22kJGgc/Bxe0WCyF6IS395MtoDt0UpvlRsjKc1WbrbQ2N6hx/hJPYZ+Pxwi7iNvlpCsQ9cGkMbJmGKA6oxYQ/Rb2szURX8FtUMBfTrqLuhFj6iMu3HiovYYQjwALKNvVSzmxHMCzY30UyDBQgQJreVZ5Hm5WCMKTsubhNGDLEzFwejmx0UoplO7H3OOz+lyHyQDY1rIwwlrsmZXiz8mk3hdYillS9pRwnIAYleymBmFoo5E3bzIu+c7nAd2rqU1sgPhTeTKwNfEq3zVwHfFDWPJV8gPKtVKveEWy962gjIOTXkiimg7fzZe9FlnPisAzjJPF1jMtsm7MevGlg/ruTkuvRdYa1EcN/WLFAeO2tR6UtKX13v2piCIzj7SbdSquE4iQO7e3mfRanLeKRI0jGMezMy09UfKz2udql27cA3LudE6U3kE236j8SOUx96s6Tfd6ouT8S02V5PLDJDmztUjsaS2unp6ln22EtmjqqUDV494f0/pViuSNTkvSHWRSuZiYjYlahvxn5IFW0fyInrZyZmLth6YZhxeTwEy78FEuZ0N9svpnf+gQosvmBXcs9pNlA7n/eQUq5amhiom360ZIEy1KvB38L0uj8D8KtrXclLtF9QjY/kVZjsrBHv8wrFTyZ5Md/T/oTymLq202+hRl8v4HZOk5GOgVP8wAAAAASUVORK5CYII=;" vertex="1" parent="1">
          <mxGeometry x="129.09" y="365" width="57.83" height="38" as="geometry" />
        </mxCell>
        <mxCell id="Ob0yJDUcJnIcGMKmv0vH-32" value="" style="shape=image;html=1;verticalAlign=top;verticalLabelPosition=bottom;labelBackgroundColor=#ffffff;imageAspect=0;aspect=fixed;image=https://cdn0.iconfinder.com/data/icons/devices-42/512/Macbook-128.png" vertex="1" parent="1">
          <mxGeometry x="699" y="312" width="128" height="128" as="geometry" />
        </mxCell>
        <mxCell id="Ob0yJDUcJnIcGMKmv0vH-33" value="" style="image;html=1;image=img/lib/clip_art/finance/Pie_Chart_128x128.png" vertex="1" parent="1">
          <mxGeometry x="780" y="365" width="20" height="26" as="geometry" />
        </mxCell>
        <mxCell id="Ob0yJDUcJnIcGMKmv0vH-34" value="" style="verticalLabelPosition=bottom;shadow=0;dashed=0;align=center;html=1;verticalAlign=top;strokeWidth=1;shape=mxgraph.mockup.graphics.lineChart;strokeColor=none;strokeColor2=#666666;strokeColor3=#008cff;strokeColor4=#dddddd;" vertex="1" parent="1">
          <mxGeometry x="730" y="361" width="40" height="30" as="geometry" />
        </mxCell>
        <mxCell id="Ob0yJDUcJnIcGMKmv0vH-35" value="" style="dashed=0;outlineConnect=0;html=1;align=center;labelPosition=center;verticalLabelPosition=bottom;verticalAlign=top;shape=mxgraph.weblogos.json" vertex="1" parent="1">
          <mxGeometry x="462.56" y="283.2" width="30" height="35.8" as="geometry" />
        </mxCell>
        <mxCell id="Ob0yJDUcJnIcGMKmv0vH-36" value="" style="edgeStyle=orthogonalEdgeStyle;html=1;endArrow=open;elbow=vertical;startArrow=open;startFill=0;endFill=0;strokeColor=#545B64;rounded=0;" edge="1" parent="1">
          <mxGeometry width="100" relative="1" as="geometry">
            <mxPoint x="434" y="320" as="sourcePoint" />
            <mxPoint x="520" y="320" as="targetPoint" />
          </mxGeometry>
        </mxCell>
      </root>
    </mxGraphModel>
  </diagram>
</mxfile>
